<svg width="26" height="24" viewBox="0 0 26 24" fill="none" xmlns="http://www.w3.org/2000/svg">
<path d="M13 6.75006C11.9616 6.75006 10.9466 7.05797 10.0832 7.63485C9.21986 8.21172 8.54696 9.03166 8.1496 9.99097C7.75224 10.9503 7.64827 12.0059 7.85084 13.0243C8.05341 14.0427 8.55343 14.9781 9.28765 15.7124C10.0219 16.4466 10.9573 16.9466 11.9757 17.1492C12.9941 17.3518 14.0497 17.2478 15.0091 16.8504C15.9684 16.4531 16.7883 15.7802 17.3652 14.9168C17.9421 14.0534 18.25 13.0384 18.25 12.0001C18.2485 10.6081 17.6949 9.2736 16.7107 8.28935C15.7264 7.3051 14.3919 6.75151 13 6.75006ZM13 15.5001C12.3077 15.5001 11.631 15.2948 11.0555 14.9102C10.4799 14.5256 10.0313 13.979 9.76638 13.3395C9.50148 12.6999 9.43217 11.9962 9.56721 11.3172C9.70226 10.6383 10.0356 10.0147 10.5251 9.52519C11.0146 9.0357 11.6382 8.70236 12.3171 8.56731C12.9961 8.43226 13.6998 8.50158 14.3394 8.76648C14.9789 9.03139 15.5255 9.47999 15.9101 10.0556C16.2947 10.6311 16.5 11.3078 16.5 12.0001C16.5 12.9283 16.1312 13.8186 15.4748 14.4749C14.8185 15.1313 13.9282 15.5001 13 15.5001ZM25.0247 9.72615C25.0003 9.60294 24.9497 9.48641 24.8763 9.3845C24.8028 9.28258 24.7083 9.19767 24.5992 9.13553L21.3365 7.27615L21.3234 3.59897C21.323 3.47233 21.2951 3.34728 21.2417 3.23247C21.1882 3.11765 21.1105 3.01581 21.0139 2.93397C19.8304 1.93286 18.4675 1.16566 16.9976 0.673185C16.8819 0.634007 16.7592 0.619508 16.6375 0.630623C16.5158 0.641737 16.3978 0.678218 16.2911 0.737717L13 2.5774L9.70559 0.734435C9.59879 0.674602 9.48062 0.637845 9.35872 0.626541C9.23683 0.615237 9.11392 0.629637 8.99793 0.66881C7.52919 1.16489 6.16785 1.93501 4.98606 2.93834C4.88955 3.02006 4.81191 3.12173 4.75847 3.23635C4.70504 3.35096 4.67708 3.47579 4.67653 3.60225L4.66012 7.28272L1.39746 9.14209C1.28831 9.20423 1.19381 9.28915 1.1204 9.39106C1.04698 9.49298 0.996367 9.6095 0.971995 9.73272C0.673397 11.2332 0.673397 12.7778 0.971995 14.2783C0.996367 14.4016 1.04698 14.5181 1.1204 14.62C1.19381 14.7219 1.28831 14.8068 1.39746 14.869L4.66012 16.7283L4.67325 20.4055C4.67364 20.5322 4.70152 20.6572 4.75496 20.772C4.80841 20.8868 4.88613 20.9887 4.98278 21.0705C6.16629 22.0716 7.5292 22.8388 8.99903 23.3313C9.11478 23.3705 9.23745 23.385 9.35914 23.3739C9.48084 23.3628 9.59885 23.3263 9.70559 23.2668L13 21.4227L16.2943 23.2657C16.4247 23.3383 16.5717 23.376 16.7209 23.3751C16.8165 23.375 16.9114 23.3595 17.002 23.3291C18.4706 22.8337 19.8319 22.0643 21.0139 21.0618C21.1104 20.9801 21.188 20.8784 21.2415 20.7638C21.2949 20.6492 21.3228 20.5243 21.3234 20.3979L21.3398 16.7174L24.6025 14.858C24.7116 14.7959 24.8061 14.711 24.8795 14.6091C24.9529 14.5071 25.0036 14.3906 25.0279 14.2674C25.3249 12.7681 25.3238 11.225 25.0247 9.72615ZM23.384 13.5444L20.2592 15.3218C20.1223 15.3996 20.0089 15.513 19.9311 15.6499C19.8676 15.7593 19.8009 15.8752 19.7331 15.9846C19.6463 16.1225 19.6 16.2821 19.5997 16.4451L19.5832 19.9724C18.7433 20.632 17.8076 21.1594 16.8084 21.5365L13.6562 19.7799C13.5254 19.7075 13.3781 19.6698 13.2286 19.6705H13.2078C13.0754 19.6705 12.942 19.6705 12.8097 19.6705C12.6531 19.6666 12.4984 19.7044 12.3612 19.7799L9.20684 21.5408C8.20552 21.1667 7.26721 20.6418 6.42434 19.9844L6.41231 16.4626C6.41177 16.2993 6.36555 16.1394 6.27887 16.001C6.21106 15.8916 6.14434 15.7822 6.082 15.6663C6.00469 15.5273 5.89134 15.4117 5.75387 15.3316L2.62575 13.5499C2.46387 12.526 2.46387 11.4829 2.62575 10.459L5.74512 8.67834C5.88203 8.60049 5.99539 8.48713 6.07325 8.35022C6.13668 8.24084 6.2034 8.1249 6.27121 8.01553C6.35802 7.8776 6.40426 7.71803 6.40465 7.55506L6.42106 4.02772C7.26098 3.36813 8.19672 2.84069 9.1959 2.46365L12.3437 4.22022C12.4807 4.29616 12.6356 4.33393 12.7922 4.32959C12.9245 4.32959 13.0579 4.32959 13.1903 4.32959C13.3468 4.3335 13.5016 4.29576 13.6387 4.22022L16.7931 2.45928C17.7944 2.83342 18.7327 3.35827 19.5756 4.01569L19.5876 7.53756C19.5882 7.70085 19.6344 7.86073 19.7211 7.99912C19.7889 8.1085 19.8556 8.21787 19.9179 8.33381C19.9952 8.47284 20.1086 8.58846 20.2461 8.6685L23.3742 10.4502C23.5382 11.475 23.5401 12.5191 23.3797 13.5444H23.384Z" fill="#4F7471"/>
</svg>
