<svg width="57" height="56" viewBox="0 0 57 56" fill="none" xmlns="http://www.w3.org/2000/svg">
<path d="M49.9069 22.4919C49.0822 21.63 48.2291 20.7419 47.9075 19.9609C47.61 19.2456 47.5925 18.06 47.575 16.9116C47.5422 14.7766 47.5072 12.3572 45.825 10.675C44.1428 8.99281 41.7234 8.95781 39.5884 8.925C38.44 8.9075 37.2544 8.89 36.5391 8.5925C35.7603 8.27094 34.87 7.41781 34.0081 6.59312C32.4987 5.14281 30.7838 3.5 28.5 3.5C26.2162 3.5 24.5034 5.14281 22.9919 6.59312C22.13 7.41781 21.2419 8.27094 20.4609 8.5925C19.75 8.89 18.56 8.9075 17.4116 8.925C15.2766 8.95781 12.8572 8.99281 11.175 10.675C9.49281 12.3572 9.46875 14.7766 9.425 16.9116C9.4075 18.06 9.39 19.2456 9.0925 19.9609C8.77094 20.7397 7.91781 21.63 7.09312 22.4919C5.64281 24.0012 4 25.7162 4 28C4 30.2838 5.64281 31.9966 7.09312 33.5081C7.91781 34.37 8.77094 35.2581 9.0925 36.0391C9.39 36.7544 9.4075 37.94 9.425 39.0884C9.45781 41.2234 9.49281 43.6428 11.175 45.325C12.8572 47.0072 15.2766 47.0422 17.4116 47.075C18.56 47.0925 19.7456 47.11 20.4609 47.4075C21.2397 47.7291 22.13 48.5822 22.9919 49.4069C24.5012 50.8572 26.2162 52.5 28.5 52.5C30.7838 52.5 32.4966 50.8572 34.0081 49.4069C34.87 48.5822 35.7581 47.7291 36.5391 47.4075C37.2544 47.11 38.44 47.0925 39.5884 47.075C41.7234 47.0422 44.1428 47.0072 45.825 45.325C47.5072 43.6428 47.5422 41.2234 47.575 39.0884C47.5925 37.94 47.61 36.7544 47.9075 36.0391C48.2291 35.2603 49.0822 34.37 49.9069 33.5081C51.3572 31.9987 53 30.2838 53 28C53 25.7162 51.3572 24.0034 49.9069 22.4919ZM38.4881 23.9881L26.2381 36.2381C26.0756 36.4008 25.8826 36.5299 25.6701 36.618C25.4577 36.706 25.23 36.7514 25 36.7514C24.77 36.7514 24.5423 36.706 24.3299 36.618C24.1174 36.5299 23.9244 36.4008 23.7619 36.2381L18.5119 30.9881C18.1835 30.6598 17.999 30.2144 17.999 29.75C17.999 29.2856 18.1835 28.8402 18.5119 28.5119C18.8402 28.1835 19.2856 27.999 19.75 27.999C20.2144 27.999 20.6598 28.1835 20.9881 28.5119L25 32.5259L36.0119 21.5119C36.1745 21.3493 36.3675 21.2203 36.5799 21.1323C36.7924 21.0443 37.0201 20.999 37.25 20.999C37.4799 20.999 37.7076 21.0443 37.9201 21.1323C38.1325 21.2203 38.3255 21.3493 38.4881 21.5119C38.6507 21.6745 38.7797 21.8675 38.8677 22.0799C38.9557 22.2924 39.001 22.5201 39.001 22.75C39.001 22.9799 38.9557 23.2076 38.8677 23.4201C38.7797 23.6325 38.6507 23.8255 38.4881 23.9881Z" fill="#4F7471"/>
</svg>
