<svg width="165" height="56" viewBox="0 0 165 56" fill="none" xmlns="http://www.w3.org/2000/svg">
<g filter="url(#filter0_dd_1_22786)">
<rect x="3" y="8" width="40" height="40" rx="10" fill="#0037FF"/>
<path d="M23.4517 18.24C23.4517 18.1075 23.3443 18 23.2117 18H18.4659C18.3333 18 18.2259 18.1075 18.2259 18.24V21.7352C18.2259 21.8775 18.1027 21.9886 17.9611 21.9739L13.2648 21.4863C13.1232 21.4716 13 21.5827 13 21.725L13 26.329C13 26.4519 13.0929 26.555 13.2152 26.5677L21.2643 27.4034C21.266 27.4036 21.2673 27.405 21.2673 27.4067C21.2673 27.4086 21.2658 27.4101 21.264 27.4101H18.4659C18.3333 27.4101 18.2259 27.5175 18.2259 27.6501V36.502C18.2259 36.625 18.3188 36.728 18.4411 36.7407L30.5575 37.9987C30.6571 38.009 30.7526 37.9565 30.7972 37.8669L32.9747 33.489C33.0493 33.339 32.9512 33.1607 32.7846 33.1434L20.4795 31.8659H23.2117C23.3443 31.8659 23.4517 31.7584 23.4517 31.6259V27.8967C23.4517 27.7543 23.5749 27.6433 23.7165 27.658L28.4128 28.1456C28.5544 28.1603 28.6776 28.0492 28.6776 27.9068V23.3029C28.6776 23.1799 28.5846 23.0769 28.4623 23.0642L23.6669 22.5663C23.5446 22.5536 23.4517 22.4505 23.4517 22.3276V18.24Z" fill="#FFD800"/>
</g>
<path d="M66.75 22.8182V26.5114H57.4062V22.8182H66.75ZM59.2159 19.4205H64.3125V32.4389C64.3125 32.6359 64.3464 32.8021 64.4141 32.9375C64.4818 33.0668 64.5864 33.1652 64.728 33.233C64.8696 33.2945 65.0511 33.3253 65.2727 33.3253C65.4266 33.3253 65.6051 33.3068 65.8082 33.2699C66.0175 33.233 66.1714 33.2022 66.2699 33.1776L67.0085 36.7599C66.7808 36.8277 66.4545 36.9107 66.0298 37.0092C65.6113 37.1077 65.1127 37.1723 64.5341 37.2031C63.3646 37.2647 62.3828 37.1446 61.5888 36.843C60.7947 36.5353 60.1977 36.0521 59.7976 35.3935C59.3975 34.7348 59.2036 33.91 59.2159 32.919V19.4205ZM72.7814 37.2216C71.8766 37.2216 71.0764 37.0739 70.3809 36.7784C69.6915 36.4768 69.1498 36.0213 68.7559 35.4119C68.3619 34.8026 68.165 34.027 68.165 33.0852C68.165 32.3097 68.2973 31.648 68.562 31.1001C68.8266 30.5462 69.196 30.0938 69.6699 29.7429C70.1439 29.392 70.6948 29.1243 71.3226 28.9396C71.9566 28.755 72.6399 28.6349 73.3723 28.5795C74.1664 28.518 74.8034 28.4441 75.2836 28.358C75.7698 28.2656 76.1207 28.1394 76.3361 27.9794C76.5516 27.8132 76.6593 27.5947 76.6593 27.3239V27.2869C76.6593 26.9176 76.5177 26.6345 76.2346 26.4375C75.9514 26.2405 75.5882 26.142 75.1451 26.142C74.6588 26.142 74.2618 26.2498 73.954 26.4652C73.6524 26.6745 73.4708 26.9976 73.4093 27.4347H68.7189C68.7805 26.5729 69.0544 25.7789 69.5407 25.0526C70.0331 24.3201 70.7502 23.7353 71.6919 23.2983C72.6337 22.8551 73.8094 22.6335 75.2189 22.6335C76.2346 22.6335 77.1455 22.7536 77.9519 22.9936C78.7582 23.2275 79.4445 23.5568 80.0108 23.9815C80.5771 24.4001 81.008 24.8925 81.3034 25.4588C81.6051 26.0189 81.7559 26.6283 81.7559 27.2869V37H76.9917V35.0057H76.8809C76.5977 35.535 76.253 35.9628 75.8468 36.2891C75.4467 36.6153 74.9881 36.8523 74.4711 37C73.9602 37.1477 73.397 37.2216 72.7814 37.2216ZM74.4434 34.0085C74.8311 34.0085 75.1943 33.9285 75.5328 33.7685C75.8775 33.6084 76.1576 33.3776 76.373 33.076C76.5885 32.7744 76.6962 32.4081 76.6962 31.9773V30.7955C76.5608 30.8509 76.4161 30.9032 76.2623 30.9524C76.1145 31.0017 75.9545 31.0478 75.7821 31.0909C75.6159 31.134 75.4374 31.174 75.2466 31.2109C75.062 31.2479 74.8681 31.2817 74.665 31.3125C74.271 31.3741 73.9479 31.4756 73.6955 31.6172C73.4493 31.7526 73.2646 31.9219 73.1415 32.125C73.0246 32.322 72.9661 32.5436 72.9661 32.7898C72.9661 33.1837 73.1046 33.4853 73.3816 33.6946C73.6586 33.9039 74.0125 34.0085 74.4434 34.0085ZM97.1541 27.4347H92.4638C92.4392 27.1454 92.3376 26.8961 92.1591 26.6868C91.9806 26.4775 91.7498 26.3175 91.4666 26.2067C91.1896 26.0897 90.8819 26.0312 90.5433 26.0312C90.1063 26.0312 89.7308 26.1113 89.4169 26.2713C89.103 26.4313 88.9491 26.6591 88.9553 26.9545C88.9491 27.1638 89.0384 27.3577 89.223 27.5362C89.4138 27.7147 89.7801 27.8532 90.3217 27.9517L93.2024 28.4688C94.6551 28.7334 95.7353 29.1797 96.4432 29.8075C97.1572 30.4292 97.5173 31.2633 97.5234 32.3097C97.5173 33.3191 97.2157 34.1963 96.6186 34.9411C96.0277 35.6797 95.2183 36.2521 94.1903 36.6584C93.1686 37.0585 92.0021 37.2585 90.6911 37.2585C88.5244 37.2585 86.8286 36.8153 85.6037 35.929C84.3849 35.0426 83.7048 33.8731 83.5632 32.4205H88.6229C88.6906 32.8698 88.9122 33.2176 89.2876 33.4638C89.6693 33.7038 90.1494 33.8239 90.728 33.8239C91.1958 33.8239 91.5805 33.7438 91.8821 33.5838C92.1899 33.4238 92.3468 33.196 92.353 32.9006C92.3468 32.6297 92.2114 32.4143 91.9467 32.2543C91.6882 32.0942 91.282 31.965 90.728 31.8665L88.2166 31.4233C86.7701 31.1709 85.6868 30.6908 84.9666 29.983C84.2464 29.2751 83.8894 28.3641 83.8956 27.25C83.8894 26.2652 84.148 25.4311 84.6712 24.7479C85.2005 24.0585 85.9545 23.5353 86.9332 23.1783C87.9181 22.8151 89.0845 22.6335 90.4325 22.6335C92.4822 22.6335 94.098 23.0582 95.2798 23.9077C96.4678 24.7571 97.0926 25.9328 97.1541 27.4347ZM104.056 33.6392L104.093 27.5824H104.757L108.192 22.8182H113.917L108.155 30.2415H106.715L104.056 33.6392ZM99.4762 37V18.0909H104.573V37H99.4762ZM108.229 37L104.979 31.3864L108.303 27.767L114.064 37H108.229ZM120.34 29.0227V37H115.244V18.0909H120.156V25.5142H120.303C120.624 24.6094 121.156 23.9046 121.901 23.3999C122.646 22.889 123.541 22.6335 124.588 22.6335C125.591 22.6335 126.462 22.8613 127.2 23.3168C127.945 23.7723 128.521 24.4001 128.927 25.2003C129.339 26.0005 129.543 26.9176 129.536 27.9517V37H124.44V29.0227C124.446 28.321 124.271 27.7701 123.914 27.37C123.563 26.9699 123.061 26.7699 122.409 26.7699C121.996 26.7699 121.633 26.8622 121.319 27.0469C121.011 27.2254 120.771 27.4839 120.599 27.8224C120.433 28.1548 120.347 28.5549 120.34 29.0227ZM141.248 30.7955V22.8182H146.345V37H141.507V34.304H141.359C141.051 35.2088 140.513 35.9167 139.743 36.4276C138.974 36.9323 138.06 37.1847 137.001 37.1847C136.01 37.1847 135.142 36.9569 134.398 36.5014C133.659 36.0459 133.083 35.4181 132.671 34.6179C132.265 33.8177 132.059 32.9006 132.052 31.8665V22.8182H137.149V30.7955C137.155 31.4972 137.334 32.0481 137.684 32.4482C138.041 32.8482 138.54 33.0483 139.18 33.0483C139.605 33.0483 139.971 32.959 140.279 32.7805C140.593 32.5959 140.833 32.3374 140.999 32.005C141.171 31.6664 141.255 31.2633 141.248 30.7955ZM148.863 37V18.0909H153.96V25.2926H154.034C154.218 24.8125 154.489 24.3724 154.846 23.9723C155.203 23.5661 155.646 23.2429 156.176 23.0028C156.705 22.7566 157.321 22.6335 158.022 22.6335C158.958 22.6335 159.847 22.8828 160.691 23.3814C161.54 23.88 162.23 24.6648 162.759 25.7358C163.294 26.8068 163.562 28.1979 163.562 29.9091C163.562 31.5464 163.307 32.9036 162.796 33.9808C162.291 35.058 161.614 35.8613 160.765 36.3906C159.921 36.92 158.995 37.1847 157.985 37.1847C157.321 37.1847 156.727 37.0769 156.203 36.8615C155.686 36.6399 155.243 36.3414 154.874 35.9659C154.511 35.5843 154.231 35.1534 154.034 34.6733H153.923V37H148.863ZM153.849 29.9091C153.849 30.5985 153.938 31.1955 154.117 31.7003C154.301 32.1989 154.56 32.5866 154.892 32.8636C155.231 33.1345 155.634 33.2699 156.102 33.2699C156.57 33.2699 156.967 33.1375 157.293 32.8729C157.625 32.602 157.878 32.2173 158.05 31.7188C158.229 31.214 158.318 30.6108 158.318 29.9091C158.318 29.2074 158.229 28.6072 158.05 28.1087C157.878 27.6039 157.625 27.2192 157.293 26.9545C156.967 26.6837 156.57 26.5483 156.102 26.5483C155.634 26.5483 155.231 26.6837 154.892 26.9545C154.56 27.2192 154.301 27.6039 154.117 28.1087C153.938 28.6072 153.849 29.2074 153.849 29.9091Z" fill="black"/>
<defs>
<filter id="filter0_dd_1_22786" x="0" y="6" width="46" height="46" filterUnits="userSpaceOnUse" color-interpolation-filters="sRGB">
<feFlood flood-opacity="0" result="BackgroundImageFix"/>
<feColorMatrix in="SourceAlpha" type="matrix" values="0 0 0 0 0 0 0 0 0 0 0 0 0 0 0 0 0 0 127 0" result="hardAlpha"/>
<feOffset dy="1"/>
<feGaussianBlur stdDeviation="1"/>
<feColorMatrix type="matrix" values="0 0 0 0 0.0941176 0 0 0 0 0.137255 0 0 0 0 0.133333 0 0 0 0.06 0"/>
<feBlend mode="normal" in2="BackgroundImageFix" result="effect1_dropShadow_1_22786"/>
<feColorMatrix in="SourceAlpha" type="matrix" values="0 0 0 0 0 0 0 0 0 0 0 0 0 0 0 0 0 0 127 0" result="hardAlpha"/>
<feOffset dy="1"/>
<feGaussianBlur stdDeviation="1.5"/>
<feColorMatrix type="matrix" values="0 0 0 0 0.0941176 0 0 0 0 0.137255 0 0 0 0 0.133333 0 0 0 0.1 0"/>
<feBlend mode="normal" in2="effect1_dropShadow_1_22786" result="effect2_dropShadow_1_22786"/>
<feBlend mode="normal" in="SourceGraphic" in2="effect2_dropShadow_1_22786" result="shape"/>
</filter>
</defs>
</svg>
